# xmcd CD database file
#
# Track frame offsets:
#	150
#	1720
#	28957
#	56745
#	79925
#	84512
#	108472
#	133910
#	138585
#	163207
#	184137
#	213465
#	217442
#	237540
#	263062
#
# Disc length: 3666 seconds
#
# Revision: 2
# Processed by: cddbd v1.5.2PL0 Copyright (c) Steve Scherf et al.
# Submitted via: CDex 1.70beta3
#
DISCID=e70e500f
DTITLE=i-dep - Smile exchange
DYEAR=2005
DGENRE=House
TTITLE0=I can
TTITLE1=Rainbow
TTITLE2=Sunday feat. pablo
TTITLE3=Take it easy
TTITLE4=Moment
TTITLE5=Sweets for the night
TTITLE6=Raise your hands
TTITLE7=Sabome
TTITLE8=i-dep no theme
TTITLE9=Diary
TTITLE10=Can't I ?
TTITLE11=Get water
TTITLE12=Shake
TTITLE13=Evening
TTITLE14=How to
EXTD=YEAR: 2005
EXTT0=
EXTT1=
EXTT2=
EXTT3=
EXTT4=
EXTT5=
EXTT6=
EXTT7=
EXTT8=
EXTT9=
EXTT10=
EXTT11=
EXTT12=
EXTT13=
EXTT14=
PLAYORDER=
